<svg width="26" height="32" viewBox="0 0 26 32" fill="none" xmlns="http://www.w3.org/2000/svg">
<g filter="url(#filter0_ddddd_103_1082)">
<path d="M3 11C3 5.47715 7.47715 1 13 1C18.5228 1 23 5.47715 23 11C23 16.5228 18.5228 21 13 21C7.47715 21 3 16.5228 3 11Z" fill="#7CDFC8"/>
<mask id="mask0_103_1082" style="mask-type:alpha" maskUnits="userSpaceOnUse" x="3" y="1" width="20" height="20">
<circle cx="13" cy="11" r="10" fill="#DD88D9"/>
</mask>
<g mask="url(#mask0_103_1082)">
<path fill-rule="evenodd" clip-rule="evenodd" d="M7.52367 6.40621C6.73032 6.14269 5.88182 6.00001 5 6.00001C0.581722 6.00001 -3 9.58174 -3 14C-3 18.4183 0.581722 22 5 22C6.73333 22 8.33791 21.4488 9.64799 20.512C10.932 22.0336 12.8532 23 15 23C18.866 23 22 19.866 22 16C22 12.4429 19.3468 9.50556 15.9115 9.05882C15.4713 6.74734 13.4397 5 11 5C9.64915 5 8.42343 5.53569 7.52367 6.40621Z" fill="#2F5E53"/>
</g>
<path d="M13.8418 17.7158C12.6747 17.7158 11.7312 16.7668 11.7312 15.6052H12.5493C12.5493 16.3196 13.1274 16.8977 13.8418 16.8977V17.7158Z" fill="white"/>
<path d="M11.7962 13.8598C12.238 13.8598 12.5925 13.4998 12.5925 13.0635V12.7963C12.598 12.36 12.238 12 11.7962 12C11.3545 12 11 12.36 11 12.7963V13.0581C11 13.4998 11.3545 13.8598 11.7962 13.8598Z" fill="white"/>
<path d="M15.9578 13.8597C16.3996 13.8597 16.7541 13.4998 16.7541 13.0634V12.7962C16.7541 12.3544 16.3941 11.9999 15.9578 11.9999C15.516 11.9999 15.1615 12.3599 15.1615 12.7962V13.058C15.1561 13.4998 15.516 13.8597 15.9578 13.8597Z" fill="white"/>
</g>
<defs>
<filter id="filter0_ddddd_103_1082" x="0" y="0" width="26" height="32" filterUnits="userSpaceOnUse" color-interpolation-filters="sRGB">
<feFlood flood-opacity="0" result="BackgroundImageFix"/>
<feColorMatrix in="SourceAlpha" type="matrix" values="0 0 0 0 0 0 0 0 0 0 0 0 0 0 0 0 0 0 127 0" result="hardAlpha"/>
<feOffset/>
<feColorMatrix type="matrix" values="0 0 0 0 0 0 0 0 0 0 0 0 0 0 0 0 0 0 0.1 0"/>
<feBlend mode="normal" in2="BackgroundImageFix" result="effect1_dropShadow_103_1082"/>
<feColorMatrix in="SourceAlpha" type="matrix" values="0 0 0 0 0 0 0 0 0 0 0 0 0 0 0 0 0 0 127 0" result="hardAlpha"/>
<feOffset/>
<feGaussianBlur stdDeviation="0.5"/>
<feColorMatrix type="matrix" values="0 0 0 0 0 0 0 0 0 0 0 0 0 0 0 0 0 0 0.1 0"/>
<feBlend mode="normal" in2="effect1_dropShadow_103_1082" result="effect2_dropShadow_103_1082"/>
<feColorMatrix in="SourceAlpha" type="matrix" values="0 0 0 0 0 0 0 0 0 0 0 0 0 0 0 0 0 0 127 0" result="hardAlpha"/>
<feOffset dy="2"/>
<feGaussianBlur stdDeviation="1"/>
<feColorMatrix type="matrix" values="0 0 0 0 0 0 0 0 0 0 0 0 0 0 0 0 0 0 0.09 0"/>
<feBlend mode="normal" in2="effect2_dropShadow_103_1082" result="effect3_dropShadow_103_1082"/>
<feColorMatrix in="SourceAlpha" type="matrix" values="0 0 0 0 0 0 0 0 0 0 0 0 0 0 0 0 0 0 127 0" result="hardAlpha"/>
<feOffset dy="4"/>
<feGaussianBlur stdDeviation="1.5"/>
<feColorMatrix type="matrix" values="0 0 0 0 0 0 0 0 0 0 0 0 0 0 0 0 0 0 0.05 0"/>
<feBlend mode="normal" in2="effect3_dropShadow_103_1082" result="effect4_dropShadow_103_1082"/>
<feColorMatrix in="SourceAlpha" type="matrix" values="0 0 0 0 0 0 0 0 0 0 0 0 0 0 0 0 0 0 127 0" result="hardAlpha"/>
<feOffset dy="8"/>
<feGaussianBlur stdDeviation="1.5"/>
<feColorMatrix type="matrix" values="0 0 0 0 0 0 0 0 0 0 0 0 0 0 0 0 0 0 0.01 0"/>
<feBlend mode="normal" in2="effect4_dropShadow_103_1082" result="effect5_dropShadow_103_1082"/>
<feBlend mode="normal" in="SourceGraphic" in2="effect5_dropShadow_103_1082" result="shape"/>
</filter>
</defs>
</svg>
