<svg width="109" height="29" viewBox="0 0 109 29" fill="none" xmlns="http://www.w3.org/2000/svg">
<path fill-rule="evenodd" clip-rule="evenodd" d="M14.5072 0C6.49509 0 0 6.49187 0 14.5C0 22.5081 6.49509 29 14.5072 29C22.5193 29 29.0144 22.5081 29.0144 14.5C29.0144 6.49187 22.5193 0 14.5072 0Z" fill="#4557F6"/>
<path fill-rule="evenodd" clip-rule="evenodd" d="M24.1717 19.0009L23.5889 20.0072C22.6676 21.5981 21.3434 22.9188 19.7494 23.837C18.1554 24.7551 16.3476 25.2384 14.5074 25.2384C12.6673 25.2384 10.8595 24.7552 9.26545 23.8371C7.67139 22.919 6.34715 21.5983 5.42582 20.0074L4.84302 19.0011L6.85661 17.8361L7.43941 18.8424C8.15614 20.08 9.18646 21.1077 10.4271 21.8222C11.6677 22.5368 13.0749 22.913 14.5074 22.9129C15.9399 22.9129 17.3471 22.5367 18.5877 21.8221C19.8283 21.1075 20.8586 20.0798 21.5753 18.8422L22.1581 17.8359L24.1717 19.0009Z" fill="white"/>
<path d="M36.8561 21.712H39.0061V19.9099H39.1902C39.5878 20.6488 40.3977 21.9382 42.4594 21.9382C45.1984 21.9382 47.1864 19.6912 47.1864 15.9438C47.1864 12.1889 45.169 9.9797 42.4373 9.9797C40.3388 9.9797 39.5805 11.2917 39.1902 12.008H39.0577V6.27002H36.8561V21.712ZM39.0135 15.9212C39.0135 13.5009 40.0443 11.8949 41.9661 11.8949C43.9614 11.8949 44.9628 13.6215 44.9628 15.9212C44.9628 18.2435 43.932 20.0155 41.9661 20.0155C40.0738 20.0155 39.0135 18.3566 39.0135 15.9212Z" fill="black"/>
<path d="M55.9934 16.909C56.0008 18.8769 54.5723 19.8119 53.3353 19.8119C51.9732 19.8119 51.0307 18.8015 51.0307 17.2256V10.1305H48.8292V17.4971C48.8292 20.3698 50.3681 21.8628 52.5401 21.8628C54.241 21.8628 55.397 20.9429 55.9198 19.7063H56.0376V21.712H58.2023V10.1305H55.9934V16.909Z" fill="black"/>
<path d="M60.5077 21.712H62.6577V19.9099H62.8418C63.2394 20.6488 64.0493 21.9382 66.111 21.9382C68.85 21.9382 70.838 19.6912 70.838 15.9438C70.838 12.1889 68.8205 9.9797 66.0889 9.9797C63.9904 9.9797 63.232 11.2917 62.8418 12.008H62.7093V6.27002H60.5077V21.712ZM62.6651 15.9212C62.6651 13.5009 63.6959 11.8949 65.6176 11.8949C67.613 11.8949 68.6144 13.6215 68.6144 15.9212C68.6144 18.2435 67.5836 20.0155 65.6176 20.0155C63.7253 20.0155 62.6651 18.3566 62.6651 15.9212Z" fill="black"/>
<path d="M72.6575 21.712H74.8075V19.9099H74.9915C75.3891 20.6488 76.1991 21.9382 78.2607 21.9382C80.9998 21.9382 82.9878 19.6912 82.9878 15.9438C82.9878 12.1889 80.9703 9.9797 78.2386 9.9797C76.1402 9.9797 75.3818 11.2917 74.9915 12.008H74.859V6.27002H72.6575V21.712ZM74.8148 15.9212C74.8148 13.5009 75.8457 11.8949 77.7674 11.8949C79.7628 11.8949 80.7641 13.6215 80.7641 15.9212C80.7641 18.2435 79.7333 20.0155 77.7674 20.0155C75.8751 20.0155 74.8148 18.3566 74.8148 15.9212Z" fill="black"/>
<path d="M86.8321 6.27002H84.6305V21.712H86.8321V6.27002Z" fill="black"/>
<path d="M93.8388 21.9457C96.3054 21.9457 98.0504 20.7016 98.5511 18.8166L96.4674 18.432C96.0698 19.5254 95.1126 20.0833 93.8609 20.0833C91.9759 20.0833 90.7095 18.8317 90.6506 16.5998H98.691V15.8006C98.691 11.6159 96.2465 9.9797 93.6841 9.9797C90.5328 9.9797 88.4564 12.4377 88.4564 15.9966C88.4564 19.5932 90.5033 21.9457 93.8388 21.9457ZM90.658 14.9109C90.7463 13.2671 91.9097 11.8421 93.6989 11.8421C95.4071 11.8421 96.5263 13.139 96.5336 14.9109H90.658Z" fill="black"/>
<path d="M108.779 12.958C108.323 11.1559 106.946 9.9797 104.501 9.9797C101.946 9.9797 100.135 11.3595 100.135 13.4104C100.135 15.0541 101.107 16.1474 103.227 16.63L105.142 17.0598C106.232 17.3086 106.74 17.8062 106.74 18.5301C106.74 19.4273 105.804 20.1286 104.361 20.1286C103.043 20.1286 102.197 19.548 101.932 18.4094L99.8036 18.7412C100.172 20.7921 101.836 21.9457 104.376 21.9457C107.108 21.9457 109 20.4603 109 18.3642C109 16.728 107.984 15.7176 105.908 15.2275L104.111 14.8053C102.867 14.5037 102.329 14.0739 102.336 13.2898C102.329 12.4 103.272 11.7667 104.523 11.7667C105.893 11.7667 106.526 12.5433 106.784 13.3199L108.779 12.958Z" fill="black"/>
</svg>
