<svg width="20" height="20" viewBox="0 0 20 20" fill="none" xmlns="http://www.w3.org/2000/svg">
<circle cx="10" cy="10" r="10" fill="#6ED59B"/>
<mask id="mask0" mask-type="alpha" maskUnits="userSpaceOnUse" x="0" y="0" width="20" height="20">
<circle cx="10" cy="10" r="10" fill="#7CDFC8"/>
</mask>
<g mask="url(#mask0)">
<path d="M10.7753 20.0301C16.1611 20.0301 20.5272 17.2435 20.5272 13.806C20.5272 10.3684 16.1611 7.58179 10.7753 7.58179C5.38949 7.58179 1.02344 10.3684 1.02344 13.806C1.02344 17.2435 5.38949 20.0301 10.7753 20.0301Z" fill="#135B2D"/>
<path d="M8.94605 17.3572C7.63778 17.3572 6.57715 16.2919 6.57715 14.9883H7.51162C7.51162 15.7826 8.15641 16.4227 8.94605 16.4227C9.73568 16.4227 10.3851 15.7779 10.3851 14.9883H11.3196C11.3196 16.2919 10.2543 17.3572 8.94605 17.3572Z" fill="white"/>
<path d="M7.0443 12.6199C7.48299 12.6199 7.83861 12.2642 7.83861 11.8256C7.83861 11.3869 7.48299 11.0312 7.0443 11.0312C6.60562 11.0312 6.25 11.3869 6.25 11.8256C6.25 12.2642 6.60562 12.6199 7.0443 12.6199Z" fill="white"/>
<path d="M10.8992 12.6199C11.3378 12.6199 11.6935 12.2642 11.6935 11.8256C11.6935 11.3869 11.3378 11.0312 10.8992 11.0312C10.4605 11.0312 10.1049 11.3869 10.1049 11.8256C10.1049 12.2642 10.4605 12.6199 10.8992 12.6199Z" fill="white"/>
<path d="M7.82697 10.052C9.73337 10.052 11.2788 8.50132 11.2788 6.58849C11.2788 4.67566 9.73337 3.125 7.82697 3.125C5.92057 3.125 4.37512 4.67566 4.37512 6.58849C4.37512 8.50132 5.92057 10.052 7.82697 10.052Z" fill="#135B2D"/>
<path d="M12.8125 9.375C14.3658 9.375 15.625 8.1158 15.625 6.5625C15.625 5.0092 14.3658 3.75 12.8125 3.75C11.2592 3.75 10 5.0092 10 6.5625C10 8.1158 11.2592 9.375 12.8125 9.375Z" fill="#135B2D"/>
</g>
</svg>
