<svg width="16" height="17" viewBox="0 0 16 17" fill="none" xmlns="http://www.w3.org/2000/svg">
<path d="M1.78949 8.49999C1.78949 5.01188 4.61716 2.1842 8.10528 2.1842V2.1842C11.5934 2.1842 14.4211 5.01188 14.4211 8.49999V8.49999C14.4211 11.9881 11.5934 14.8158 8.10528 14.8158V14.8158C4.61716 14.8158 1.78949 11.9881 1.78949 8.49999V8.49999Z" fill="#68ACF8"/>
<mask id="mask0_33_3528" style="mask-type:alpha" maskUnits="userSpaceOnUse" x="1" y="2" width="15" height="14">
<circle cx="8.42825" cy="8.82296" r="6.63876" fill="#DD88D9"/>
</mask>
<g mask="url(#mask0_33_3528)">
<path fill-rule="evenodd" clip-rule="evenodd" d="M6.89192 7.3158C6.85946 7.18965 6.84219 7.0574 6.84219 6.92111C6.84219 6.04908 7.54911 5.34216 8.42114 5.34216C9.03986 5.34216 9.57547 5.69804 9.83442 6.21627C10.2316 5.91536 10.7266 5.73683 11.2633 5.73683C12.5714 5.73683 13.6318 6.7972 13.6318 8.10525C13.6318 8.45907 13.5542 8.79478 13.4151 9.09627C13.7979 9.69659 14.0202 10.4104 14.021 11.1765C14.021 13.3091 12.3021 15.0372 10.1808 15.0372H5.7654C3.64411 15.0372 1.9252 13.3069 1.9252 11.1765C1.9252 9.04388 3.64411 7.3158 5.7654 7.3158H6.89192Z" fill="#183C65"/>
</g>
<path d="M7.83637 9.94451H7.31969C7.31969 9.78261 7.1888 9.64828 7.02346 9.64828C6.85812 9.64828 6.72722 9.77917 6.72722 9.94451H6.21054C6.21054 9.49672 6.57566 9.13159 7.02346 9.13159C7.47125 9.13159 7.83637 9.49672 7.83637 9.94451Z" fill="white"/>
<path d="M10.3853 9.94439H9.86858C9.86858 9.78249 9.73769 9.64815 9.57235 9.64815C9.40701 9.64815 9.27956 9.77905 9.27956 9.94439H8.76288C8.76288 9.49659 9.128 9.13147 9.5758 9.13147C10.0236 9.13147 10.3853 9.49659 10.3853 9.94439Z" fill="white"/>
<path d="M7.14062 11.1361C7.14062 11.8181 7.6952 12.3727 8.37722 12.3727C9.05924 12.3727 9.61382 11.8181 9.61382 11.1361H7.14062Z" fill="white"/>
<path d="M8.10528 13.3095C5.44907 13.3095 3.2958 11.1562 3.2958 8.49999H0.283184C0.283184 12.82 3.78525 16.3221 8.10528 16.3221V13.3095ZM12.9148 8.49999C12.9148 11.1562 10.7615 13.3095 8.10528 13.3095V16.3221C12.4253 16.3221 15.9274 12.82 15.9274 8.49999H12.9148ZM8.10528 3.69051C10.7615 3.69051 12.9148 5.84379 12.9148 8.49999H15.9274C15.9274 4.17997 12.4253 0.677898 8.10528 0.677898V3.69051ZM8.10528 0.677898C3.78525 0.677898 0.283184 4.17997 0.283184 8.49999H3.2958C3.2958 5.84379 5.44907 3.69051 8.10528 3.69051V0.677898Z" fill="#68ACF8"/>
</svg>
