<svg width="20" height="20" viewBox="0 0 20 20" fill="none" xmlns="http://www.w3.org/2000/svg">
<circle cx="10" cy="10" r="10" fill="#F37E7E"/>
<mask id="mask0" mask-type="alpha" maskUnits="userSpaceOnUse" x="0" y="0" width="20" height="20">
<circle cx="10" cy="10" r="10" fill="#DD88D9"/>
</mask>
<g mask="url(#mask0)">
<path d="M15.0002 13.125C17.0713 13.125 18.7502 11.4461 18.7502 9.375C18.7502 7.30393 17.0713 5.625 15.0002 5.625C12.9292 5.625 11.2502 7.30393 11.2502 9.375C11.2502 11.4461 12.9292 13.125 15.0002 13.125Z" fill="#6C1717"/>
<path d="M6.29516 20.3506H13.2861C16.6449 20.3506 19.3665 17.6144 19.3665 14.2378C19.363 10.8611 16.6414 8.125 13.2861 8.125H6.29516C2.93644 8.125 0.214844 10.8611 0.214844 14.2378C0.214844 17.611 2.93644 20.3506 6.29516 20.3506Z" fill="#6C1717"/>
</g>
<path d="M9.93966 13.3102H9.10693C9.10693 13.0492 8.89597 12.8327 8.6295 12.8327C8.36302 12.8327 8.15206 13.0437 8.15206 13.3102H7.31934C7.31934 12.5885 7.9078 12 8.6295 12C9.35119 12 9.93966 12.5885 9.93966 13.3102Z" fill="white"/>
<path d="M14.0477 13.3102H13.215C13.215 13.0492 13.004 12.8327 12.7375 12.8327C12.4711 12.8327 12.2657 13.0437 12.2657 13.3102H11.4329C11.4329 12.5885 12.0214 12 12.7431 12C13.4648 12 14.0477 12.5885 14.0477 13.3102Z" fill="white"/>
<path d="M8.81879 15.231C8.81879 16.3302 9.71258 17.224 10.8118 17.224C11.911 17.224 12.8048 16.3302 12.8048 15.231H8.81879Z" fill="white"/>
</svg>
