<svg width="24" height="24" viewBox="0 0 24 24" fill="none" xmlns="http://www.w3.org/2000/svg">
<path fill-rule="evenodd" clip-rule="evenodd" d="M12 0C5.37258 0 0 5.37258 0 12C0 18.6274 5.37258 24 12 24C18.6274 24 24 18.6274 24 12C24 5.37258 18.6274 0 12 0Z" fill="#4557F6"/>
<path fill-rule="evenodd" clip-rule="evenodd" d="M19.9943 15.7251L19.5122 16.5579C18.7501 17.8745 17.6548 18.9675 16.3362 19.7273C15.0177 20.4872 13.5223 20.8872 12.0002 20.8872C10.4781 20.8872 8.98273 20.4873 7.66417 19.7275C6.34561 18.9676 5.25023 17.8746 4.48812 16.5581L4.00604 15.7253L5.67164 14.7611L6.15372 15.5939C6.74657 16.6181 7.59884 17.4686 8.62505 18.06C9.65127 18.6513 10.8153 18.9627 12.0002 18.9626C13.1851 18.9626 14.3491 18.6513 15.3753 18.0599C16.4015 17.4685 17.2538 16.618 17.8466 15.5938L18.3287 14.761L19.9943 15.7251Z" fill="white"/>
</svg>
